%TF.GenerationSoftware,KiCad,Pcbnew,(6.0.2-0)*%
%TF.CreationDate,2022-07-14T16:09:16+02:00*%
%TF.ProjectId,micronix,6d696372-6f6e-4697-982e-6b696361645f,rev?*%
%TF.SameCoordinates,Original*%
%TF.FileFunction,Copper,L2,Bot*%
%TF.FilePolarity,Positive*%
%FSLAX46Y46*%
G04 Gerber Fmt 4.6, Leading zero omitted, Abs format (unit mm)*
G04 Created by KiCad (PCBNEW (6.0.2-0)) date 2022-07-14 16:09:16*
%MOMM*%
%LPD*%
G01*
G04 APERTURE LIST*
%TA.AperFunction,ComponentPad*%
%ADD10C,5.600000*%
%TD*%
%TA.AperFunction,ComponentPad*%
%ADD11R,1.700000X1.700000*%
%TD*%
%TA.AperFunction,ComponentPad*%
%ADD12O,1.700000X1.700000*%
%TD*%
%TA.AperFunction,Conductor*%
%ADD13C,0.250000*%
%TD*%
G04 APERTURE END LIST*
D10*
%TO.P,REF2,1*%
%TO.N,N/C*%
X78425000Y-158000000D03*
%TD*%
%TO.P,REF3,1*%
%TO.N,N/C*%
X78425000Y-187480000D03*
%TD*%
%TO.P,REF4,1*%
%TO.N,N/C*%
X22425000Y-151920000D03*
%TD*%
%TO.P,REF1,1*%
%TO.N,N/C*%
X22425000Y-187480000D03*
%TD*%
D11*
%TO.P,CPU_V_AUX1,1,Pin_1*%
%TO.N,/D9*%
X77425000Y-165920000D03*
D12*
%TO.P,CPU_V_AUX1,2,Pin_2*%
X79965000Y-165920000D03*
%TO.P,CPU_V_AUX1,3,Pin_3*%
%TO.N,unconnected-(CPU_V_AUX1-Pad3)*%
X77425000Y-168460000D03*
%TO.P,CPU_V_AUX1,4,Pin_4*%
%TO.N,unconnected-(CPU_V_AUX1-Pad4)*%
X79965000Y-168460000D03*
%TO.P,CPU_V_AUX1,5,Pin_5*%
%TO.N,unconnected-(CPU_V_AUX1-Pad5)*%
X77425000Y-171000000D03*
%TO.P,CPU_V_AUX1,6,Pin_6*%
%TO.N,/D2*%
X79965000Y-171000000D03*
%TO.P,CPU_V_AUX1,7,Pin_7*%
%TO.N,/E1*%
X77425000Y-173540000D03*
%TO.P,CPU_V_AUX1,8,Pin_8*%
%TO.N,/D2*%
X79965000Y-173540000D03*
%TD*%
D11*
%TO.P,CPU_BUS_CONTROL1,1,Pin_1*%
%TO.N,/D1*%
X37000000Y-149000000D03*
D12*
%TO.P,CPU_BUS_CONTROL1,2,Pin_2*%
%TO.N,/B1*%
X37000000Y-151540000D03*
%TO.P,CPU_BUS_CONTROL1,3,Pin_3*%
%TO.N,/C2*%
X34460000Y-149000000D03*
%TO.P,CPU_BUS_CONTROL1,4,Pin_4*%
%TO.N,/B2*%
X34460000Y-151540000D03*
%TO.P,CPU_BUS_CONTROL1,5,Pin_5*%
%TO.N,/C1*%
X31920000Y-149000000D03*
%TO.P,CPU_BUS_CONTROL1,6,Pin_6*%
%TO.N,/B3*%
X31920000Y-151540000D03*
%TO.P,CPU_BUS_CONTROL1,7,Pin_7*%
%TO.N,/A2*%
X29380000Y-149000000D03*
%TO.P,CPU_BUS_CONTROL1,8,Pin_8*%
%TO.N,/C3*%
X29380000Y-151540000D03*
%TD*%
D11*
%TO.P,CPU_PC_STAT_SC_IC1,1,Pin_1*%
%TO.N,/H1*%
X55350000Y-148725000D03*
D12*
%TO.P,CPU_PC_STAT_SC_IC1,2,Pin_2*%
%TO.N,/H2*%
X55350000Y-151265000D03*
%TO.P,CPU_PC_STAT_SC_IC1,3,Pin_3*%
%TO.N,/G1*%
X52810000Y-148725000D03*
%TO.P,CPU_PC_STAT_SC_IC1,4,Pin_4*%
%TO.N,/H3*%
X52810000Y-151265000D03*
%TO.P,CPU_PC_STAT_SC_IC1,5,Pin_5*%
%TO.N,/G2*%
X50270000Y-148725000D03*
%TO.P,CPU_PC_STAT_SC_IC1,6,Pin_6*%
%TO.N,/J2*%
X50270000Y-151265000D03*
%TO.P,CPU_PC_STAT_SC_IC1,7,Pin_7*%
%TO.N,/K3*%
X47730000Y-148725000D03*
%TO.P,CPU_PC_STAT_SC_IC1,8,Pin_8*%
%TO.N,/F1*%
X47730000Y-151265000D03*
%TO.P,CPU_PC_STAT_SC_IC1,9,Pin_9*%
%TO.N,/J3*%
X45190000Y-148725000D03*
%TO.P,CPU_PC_STAT_SC_IC1,10,Pin_10*%
%TO.N,/F2*%
X45190000Y-151265000D03*
%TO.P,CPU_PC_STAT_SC_IC1,11,Pin_11*%
%TO.N,/K2*%
X42650000Y-148725000D03*
%TO.P,CPU_PC_STAT_SC_IC1,12,Pin_12*%
%TO.N,/J1*%
X42650000Y-151265000D03*
%TD*%
D11*
%TO.P,CPU_DATA_BUS1,1,Pin_1*%
%TO.N,/B4*%
X21000000Y-160920000D03*
D12*
%TO.P,CPU_DATA_BUS1,2,Pin_2*%
%TO.N,/B10*%
X23540000Y-160920000D03*
%TO.P,CPU_DATA_BUS1,3,Pin_3*%
%TO.N,/A3*%
X21000000Y-163460000D03*
%TO.P,CPU_DATA_BUS1,4,Pin_4*%
%TO.N,/B9*%
X23540000Y-163460000D03*
%TO.P,CPU_DATA_BUS1,5,Pin_5*%
%TO.N,/A4*%
X21000000Y-166000000D03*
%TO.P,CPU_DATA_BUS1,6,Pin_6*%
%TO.N,/C8*%
X23540000Y-166000000D03*
%TO.P,CPU_DATA_BUS1,7,Pin_7*%
%TO.N,/B5*%
X21000000Y-168540000D03*
%TO.P,CPU_DATA_BUS1,8,Pin_8*%
%TO.N,/A10*%
X23540000Y-168540000D03*
%TO.P,CPU_DATA_BUS1,9,Pin_9*%
%TO.N,/A5*%
X21000000Y-171080000D03*
%TO.P,CPU_DATA_BUS1,10,Pin_10*%
%TO.N,/B8*%
X23540000Y-171080000D03*
%TO.P,CPU_DATA_BUS1,11,Pin_11*%
%TO.N,/A6*%
X21000000Y-173620000D03*
%TO.P,CPU_DATA_BUS1,12,Pin_12*%
%TO.N,/A9*%
X23540000Y-173620000D03*
%TO.P,CPU_DATA_BUS1,13,Pin_13*%
%TO.N,/B6*%
X21000000Y-176160000D03*
%TO.P,CPU_DATA_BUS1,14,Pin_14*%
%TO.N,/B7*%
X23540000Y-176160000D03*
%TO.P,CPU_DATA_BUS1,15,Pin_15*%
%TO.N,/A7*%
X21000000Y-178700000D03*
%TO.P,CPU_DATA_BUS1,16,Pin_16*%
%TO.N,/A8*%
X23540000Y-178700000D03*
%TD*%
D11*
%TO.P,CPU_ADDRESS_BUS1,1,Pin_1*%
%TO.N,/K4*%
X37025000Y-192275000D03*
D12*
%TO.P,CPU_ADDRESS_BUS1,2,Pin_2*%
%TO.N,/D9*%
X37025000Y-189735000D03*
%TO.P,CPU_ADDRESS_BUS1,3,Pin_3*%
%TO.N,/J5*%
X39565000Y-192275000D03*
%TO.P,CPU_ADDRESS_BUS1,4,Pin_4*%
%TO.N,/C9*%
X39565000Y-189735000D03*
%TO.P,CPU_ADDRESS_BUS1,5,Pin_5*%
%TO.N,/K5*%
X42105000Y-192275000D03*
%TO.P,CPU_ADDRESS_BUS1,6,Pin_6*%
%TO.N,/C10*%
X42105000Y-189735000D03*
%TO.P,CPU_ADDRESS_BUS1,7,Pin_7*%
%TO.N,/K6*%
X44645000Y-192275000D03*
%TO.P,CPU_ADDRESS_BUS1,8,Pin_8*%
%TO.N,/D10*%
X44645000Y-189735000D03*
%TO.P,CPU_ADDRESS_BUS1,9,Pin_9*%
%TO.N,/J6*%
X47185000Y-192275000D03*
%TO.P,CPU_ADDRESS_BUS1,10,Pin_10*%
%TO.N,/E10*%
X47185000Y-189735000D03*
%TO.P,CPU_ADDRESS_BUS1,11,Pin_11*%
%TO.N,/K7*%
X49725000Y-192275000D03*
%TO.P,CPU_ADDRESS_BUS1,12,Pin_12*%
%TO.N,/F10*%
X49725000Y-189735000D03*
%TO.P,CPU_ADDRESS_BUS1,13,Pin_13*%
%TO.N,/K8*%
X52265000Y-192275000D03*
%TO.P,CPU_ADDRESS_BUS1,14,Pin_14*%
%TO.N,/F9*%
X52265000Y-189735000D03*
%TO.P,CPU_ADDRESS_BUS1,15,Pin_15*%
%TO.N,/J7*%
X54805000Y-192275000D03*
%TO.P,CPU_ADDRESS_BUS1,16,Pin_16*%
%TO.N,/G10*%
X54805000Y-189735000D03*
%TO.P,CPU_ADDRESS_BUS1,17,Pin_17*%
%TO.N,/K9*%
X57345000Y-192275000D03*
%TO.P,CPU_ADDRESS_BUS1,18,Pin_18*%
%TO.N,/H10*%
X57345000Y-189735000D03*
%TO.P,CPU_ADDRESS_BUS1,19,Pin_19*%
%TO.N,/J8*%
X59885000Y-192275000D03*
%TO.P,CPU_ADDRESS_BUS1,20,Pin_20*%
%TO.N,/G9*%
X59885000Y-189735000D03*
%TO.P,CPU_ADDRESS_BUS1,21,Pin_21*%
%TO.N,/J9*%
X62425000Y-192275000D03*
%TO.P,CPU_ADDRESS_BUS1,22,Pin_22*%
%TO.N,/J10*%
X62425000Y-189735000D03*
%TO.P,CPU_ADDRESS_BUS1,23,Pin_23*%
%TO.N,/H9*%
X64965000Y-192275000D03*
%TO.P,CPU_ADDRESS_BUS1,24,Pin_24*%
%TO.N,/H8*%
X64965000Y-189735000D03*
%TD*%
D11*
%TO.P,CPUCOL3-1,1,Pin_1*%
%TO.N,/K3*%
X69425000Y-163760000D03*
D12*
%TO.P,CPUCOL3-1,2,Pin_2*%
%TO.N,/J3*%
X66885000Y-163760000D03*
%TO.P,CPUCOL3-1,3,Pin_3*%
%TO.N,/H3*%
X64345000Y-163760000D03*
%TD*%
D11*
%TO.P,CPUCOL5-2,1,Pin_1*%
%TO.N,/B5*%
X49105000Y-168840000D03*
D12*
%TO.P,CPUCOL5-2,2,Pin_2*%
%TO.N,/A5*%
X46565000Y-168840000D03*
%TD*%
D11*
%TO.P,CPUCOL1,1,Pin_1*%
%TO.N,/K1*%
X69425000Y-158680000D03*
D12*
%TO.P,CPUCOL1,2,Pin_2*%
%TO.N,/J1*%
X66885000Y-158680000D03*
%TO.P,CPUCOL1,3,Pin_3*%
%TO.N,/H1*%
X64345000Y-158680000D03*
%TO.P,CPUCOL1,4,Pin_4*%
%TO.N,/G1*%
X61805000Y-158680000D03*
%TO.P,CPUCOL1,5,Pin_5*%
%TO.N,/F1*%
X59265000Y-158680000D03*
%TO.P,CPUCOL1,6,Pin_6*%
%TO.N,/E1*%
X56725000Y-158680000D03*
%TO.P,CPUCOL1,7,Pin_7*%
%TO.N,/D1*%
X54185000Y-158680000D03*
%TO.P,CPUCOL1,8,Pin_8*%
%TO.N,/C1*%
X51645000Y-158680000D03*
%TO.P,CPUCOL1,9,Pin_9*%
%TO.N,/B1*%
X49105000Y-158680000D03*
%TO.P,CPUCOL1,10,Pin_10*%
%TO.N,/A1*%
X46565000Y-158680000D03*
%TD*%
D11*
%TO.P,CPUCOL5-1,1,Pin_1*%
%TO.N,/K5*%
X69425000Y-168840000D03*
D12*
%TO.P,CPUCOL5-1,2,Pin_2*%
%TO.N,/J5*%
X66885000Y-168840000D03*
%TD*%
D11*
%TO.P,CPUCOL7-2,1,Pin_1*%
%TO.N,/B7*%
X49105000Y-173920000D03*
D12*
%TO.P,CPUCOL7-2,2,Pin_2*%
%TO.N,/A7*%
X46565000Y-173920000D03*
%TD*%
D11*
%TO.P,CPUCOL7-1,1,Pin_1*%
%TO.N,/K7*%
X69425000Y-173920000D03*
D12*
%TO.P,CPUCOL7-1,2,Pin_2*%
%TO.N,/J7*%
X66885000Y-173920000D03*
%TD*%
D11*
%TO.P,CPUCOL8-1,1,Pin_1*%
%TO.N,/K8*%
X69425000Y-176460000D03*
D12*
%TO.P,CPUCOL8-1,2,Pin_2*%
%TO.N,/J8*%
X66885000Y-176460000D03*
%TO.P,CPUCOL8-1,3,Pin_3*%
%TO.N,/H8*%
X64345000Y-176460000D03*
%TD*%
D11*
%TO.P,CPUCOL4-1,1,Pin_1*%
%TO.N,/K4*%
X69425000Y-166300000D03*
D12*
%TO.P,CPUCOL4-1,2,Pin_2*%
%TO.N,/J4*%
X66885000Y-166300000D03*
%TD*%
D11*
%TO.P,CPUCOL2,1,Pin_1*%
%TO.N,/K2*%
X69425000Y-161220000D03*
D12*
%TO.P,CPUCOL2,2,Pin_2*%
%TO.N,/J2*%
X66885000Y-161220000D03*
%TO.P,CPUCOL2,3,Pin_3*%
%TO.N,/H2*%
X64345000Y-161220000D03*
%TO.P,CPUCOL2,4,Pin_4*%
%TO.N,/G2*%
X61805000Y-161220000D03*
%TO.P,CPUCOL2,5,Pin_5*%
%TO.N,/F2*%
X59265000Y-161220000D03*
%TO.P,CPUCOL2,6,Pin_6*%
%TO.N,/D9*%
X56725000Y-161220000D03*
%TO.P,CPUCOL2,7,Pin_7*%
%TO.N,/D2*%
X54185000Y-161220000D03*
%TO.P,CPUCOL2,8,Pin_8*%
%TO.N,/C2*%
X51645000Y-161220000D03*
%TO.P,CPUCOL2,9,Pin_9*%
%TO.N,/B2*%
X49105000Y-161220000D03*
%TO.P,CPUCOL2,10,Pin_10*%
%TO.N,/A2*%
X46565000Y-161220000D03*
%TD*%
D11*
%TO.P,CPUCOL3-2,1,Pin_1*%
%TO.N,/C3*%
X51645000Y-163760000D03*
D12*
%TO.P,CPUCOL3-2,2,Pin_2*%
%TO.N,/B3*%
X49105000Y-163760000D03*
%TO.P,CPUCOL3-2,3,Pin_3*%
%TO.N,/A3*%
X46565000Y-163760000D03*
%TD*%
D11*
%TO.P,CPUCOL6-2,1,Pin_1*%
%TO.N,/B6*%
X49105000Y-171380000D03*
D12*
%TO.P,CPUCOL6-2,2,Pin_2*%
%TO.N,/A6*%
X46565000Y-171380000D03*
%TD*%
D11*
%TO.P,CPUCOL8-2,1,Pin_1*%
%TO.N,/C8*%
X51645000Y-176460000D03*
D12*
%TO.P,CPUCOL8-2,2,Pin_2*%
%TO.N,/B8*%
X49105000Y-176460000D03*
%TO.P,CPUCOL8-2,3,Pin_3*%
%TO.N,/A8*%
X46565000Y-176460000D03*
%TD*%
D11*
%TO.P,CPUCOL4-2,1,Pin_1*%
%TO.N,/B4*%
X49105000Y-166300000D03*
D12*
%TO.P,CPUCOL4-2,2,Pin_2*%
%TO.N,/A4*%
X46565000Y-166300000D03*
%TD*%
D11*
%TO.P,CPUCOL10,1,Pin_1*%
%TO.N,/K10*%
X69425000Y-181540000D03*
D12*
%TO.P,CPUCOL10,2,Pin_2*%
%TO.N,/J10*%
X66885000Y-181540000D03*
%TO.P,CPUCOL10,3,Pin_3*%
%TO.N,/H10*%
X64345000Y-181540000D03*
%TO.P,CPUCOL10,4,Pin_4*%
%TO.N,/G10*%
X61805000Y-181540000D03*
%TO.P,CPUCOL10,5,Pin_5*%
%TO.N,/F10*%
X59265000Y-181540000D03*
%TO.P,CPUCOL10,6,Pin_6*%
%TO.N,/E10*%
X56725000Y-181540000D03*
%TO.P,CPUCOL10,7,Pin_7*%
%TO.N,/D10*%
X54185000Y-181540000D03*
%TO.P,CPUCOL10,8,Pin_8*%
%TO.N,/C10*%
X51645000Y-181540000D03*
%TO.P,CPUCOL10,9,Pin_9*%
%TO.N,/B10*%
X49105000Y-181540000D03*
%TO.P,CPUCOL10,10,Pin_10*%
%TO.N,/A10*%
X46565000Y-181540000D03*
%TD*%
D11*
%TO.P,CPUCOL9,1,Pin_1*%
%TO.N,/K9*%
X69425000Y-179000000D03*
D12*
%TO.P,CPUCOL9,2,Pin_2*%
%TO.N,/J9*%
X66885000Y-179000000D03*
%TO.P,CPUCOL9,3,Pin_3*%
%TO.N,/H9*%
X64345000Y-179000000D03*
%TO.P,CPUCOL9,4,Pin_4*%
%TO.N,/G9*%
X61805000Y-179000000D03*
%TO.P,CPUCOL9,5,Pin_5*%
%TO.N,/F9*%
X59265000Y-179000000D03*
%TO.P,CPUCOL9,6,Pin_6*%
%TO.N,/D2*%
X56725000Y-179000000D03*
%TO.P,CPUCOL9,7,Pin_7*%
%TO.N,/D9*%
X54185000Y-179000000D03*
%TO.P,CPUCOL9,8,Pin_8*%
%TO.N,/C9*%
X51645000Y-179000000D03*
%TO.P,CPUCOL9,9,Pin_9*%
%TO.N,/B9*%
X49105000Y-179000000D03*
%TO.P,CPUCOL9,10,Pin_10*%
%TO.N,/A9*%
X46565000Y-179000000D03*
%TD*%
D11*
%TO.P,CPUCOL6-1,1,Pin_1*%
%TO.N,/K6*%
X69425000Y-171380000D03*
D12*
%TO.P,CPUCOL6-1,2,Pin_2*%
%TO.N,/J6*%
X66885000Y-171380000D03*
%TD*%
D13*
%TO.N,/A10*%
X37715300Y-181540000D02*
X24715300Y-168540000D01*
X46565000Y-181540000D02*
X37715300Y-181540000D01*
X23540000Y-168540000D02*
X24715300Y-168540000D01*
%TO.N,/B10*%
X23172600Y-162095300D02*
X23540000Y-162095300D01*
X22364700Y-162903200D02*
X23172600Y-162095300D01*
X22364700Y-169133100D02*
X22364700Y-162903200D01*
X22947000Y-169715400D02*
X22364700Y-169133100D01*
X24075600Y-169715400D02*
X22947000Y-169715400D01*
X37116200Y-182756000D02*
X24075600Y-169715400D01*
X47081000Y-182756000D02*
X37116200Y-182756000D01*
X47929700Y-181907300D02*
X47081000Y-182756000D01*
X47929700Y-181540000D02*
X47929700Y-181907300D01*
X49105000Y-181540000D02*
X47929700Y-181540000D01*
X23540000Y-160920000D02*
X23540000Y-162095300D01*
%TO.N,/C10*%
X43280300Y-189096800D02*
X43280300Y-189735000D01*
X50469700Y-181907400D02*
X43280300Y-189096800D01*
X50469700Y-181540000D02*
X50469700Y-181907400D01*
X51645000Y-181540000D02*
X50469700Y-181540000D01*
X42105000Y-189735000D02*
X43280300Y-189735000D01*
%TO.N,/D10*%
X45820300Y-189062900D02*
X45820300Y-189735000D01*
X53009700Y-181873500D02*
X45820300Y-189062900D01*
X53009700Y-181540000D02*
X53009700Y-181873500D01*
X54185000Y-181540000D02*
X53009700Y-181540000D01*
X44645000Y-189735000D02*
X45820300Y-189735000D01*
%TO.N,/B9*%
X39080000Y-177824700D02*
X24715300Y-163460000D01*
X47121800Y-177824700D02*
X39080000Y-177824700D01*
X47929700Y-178632600D02*
X47121800Y-177824700D01*
X47929700Y-179000000D02*
X47929700Y-178632600D01*
X49105000Y-179000000D02*
X47929700Y-179000000D01*
X23540000Y-163460000D02*
X24715300Y-163460000D01*
%TO.N,/D9*%
X54185000Y-179000000D02*
X54185000Y-177824700D01*
X77425000Y-165920000D02*
X76249700Y-165920000D01*
X75415300Y-165085600D02*
X76249700Y-165920000D01*
X56725000Y-165085600D02*
X75415300Y-165085600D01*
X56725000Y-175284700D02*
X56725000Y-165085600D01*
X54185000Y-177824700D02*
X56725000Y-175284700D01*
X56725000Y-165085600D02*
X56725000Y-161220000D01*
%TO.N,/F9*%
X58089700Y-182735000D02*
X52265000Y-188559700D01*
X58089700Y-180983200D02*
X58089700Y-182735000D01*
X58897600Y-180175300D02*
X58089700Y-180983200D01*
X59265000Y-180175300D02*
X58897600Y-180175300D01*
X59265000Y-179000000D02*
X59265000Y-180175300D01*
X52265000Y-189735000D02*
X52265000Y-188559700D01*
%TO.N,/G9*%
X62172400Y-180175300D02*
X61805000Y-180175300D01*
X62980300Y-180983200D02*
X62172400Y-180175300D01*
X62980300Y-185464400D02*
X62980300Y-180983200D01*
X59885000Y-188559700D02*
X62980300Y-185464400D01*
X59885000Y-189735000D02*
X59885000Y-188559700D01*
X61805000Y-179000000D02*
X61805000Y-180175300D01*
%TO.N,/J9*%
X63600300Y-191907600D02*
X63600300Y-192275000D01*
X64408200Y-191099700D02*
X63600300Y-191907600D01*
X65264200Y-191099700D02*
X64408200Y-191099700D01*
X68066400Y-188297500D02*
X65264200Y-191099700D01*
X68066400Y-181036100D02*
X68066400Y-188297500D01*
X67205600Y-180175300D02*
X68066400Y-181036100D01*
X66885000Y-180175300D02*
X67205600Y-180175300D01*
X66885000Y-179000000D02*
X66885000Y-180175300D01*
X62425000Y-192275000D02*
X63600300Y-192275000D01*
%TO.N,/C8*%
X38925700Y-180210400D02*
X24715300Y-166000000D01*
X49575900Y-180210400D02*
X38925700Y-180210400D01*
X50469700Y-179316600D02*
X49575900Y-180210400D01*
X50469700Y-178443200D02*
X50469700Y-179316600D01*
X51277600Y-177635300D02*
X50469700Y-178443200D01*
X51645000Y-177635300D02*
X51277600Y-177635300D01*
X51645000Y-176460000D02*
X51645000Y-177635300D01*
X23540000Y-166000000D02*
X24715300Y-166000000D01*
%TO.N,/H8*%
X65523500Y-188001200D02*
X64965000Y-188559700D01*
X65523500Y-178446500D02*
X65523500Y-188001200D01*
X64712300Y-177635300D02*
X65523500Y-178446500D01*
X64345000Y-177635300D02*
X64712300Y-177635300D01*
X64345000Y-176460000D02*
X64345000Y-177635300D01*
X64965000Y-189735000D02*
X64965000Y-188559700D01*
%TO.N,/J7*%
X66885000Y-173920000D02*
X66885000Y-175095300D01*
X54805000Y-192275000D02*
X55980300Y-192275000D01*
X55980300Y-192642400D02*
X55980300Y-192275000D01*
X56788200Y-193450300D02*
X55980300Y-192642400D01*
X65459700Y-193450300D02*
X56788200Y-193450300D01*
X70600400Y-188309600D02*
X65459700Y-193450300D01*
X70600400Y-180445400D02*
X70600400Y-188309600D01*
X70330400Y-180175400D02*
X70600400Y-180445400D01*
X68440300Y-180175400D02*
X70330400Y-180175400D01*
X68060300Y-179795400D02*
X68440300Y-180175400D01*
X68060300Y-175903200D02*
X68060300Y-179795400D01*
X67252400Y-175095300D02*
X68060300Y-175903200D01*
X66885000Y-175095300D02*
X67252400Y-175095300D01*
%TO.N,/K7*%
X69425000Y-173920000D02*
X69425000Y-175095300D01*
X49725000Y-192275000D02*
X50900300Y-192275000D01*
X50900300Y-192642300D02*
X50900300Y-192275000D01*
X52178100Y-193920100D02*
X50900300Y-192642300D01*
X65659800Y-193920100D02*
X52178100Y-193920100D01*
X71050800Y-188529100D02*
X65659800Y-193920100D01*
X71050800Y-175913100D02*
X71050800Y-188529100D01*
X70233000Y-175095300D02*
X71050800Y-175913100D01*
X69425000Y-175095300D02*
X70233000Y-175095300D01*
%TO.N,/J6*%
X48360300Y-191907600D02*
X48360300Y-192275000D01*
X49168200Y-191099700D02*
X48360300Y-191907600D01*
X52668700Y-191099700D02*
X49168200Y-191099700D01*
X53440400Y-190328000D02*
X52668700Y-191099700D01*
X53440400Y-189199400D02*
X53440400Y-190328000D01*
X60578100Y-182061700D02*
X53440400Y-189199400D01*
X60578100Y-178494900D02*
X60578100Y-182061700D01*
X66517700Y-172555300D02*
X60578100Y-178494900D01*
X66885000Y-172555300D02*
X66517700Y-172555300D01*
X66885000Y-171380000D02*
X66885000Y-172555300D01*
X47185000Y-192275000D02*
X48360300Y-192275000D01*
%TO.N,/K5*%
X43280300Y-191907600D02*
X43280300Y-192275000D01*
X44088200Y-191099700D02*
X43280300Y-191907600D01*
X47485400Y-191099700D02*
X44088200Y-191099700D01*
X48421600Y-190163500D02*
X47485400Y-191099700D01*
X48421600Y-188990100D02*
X48421600Y-190163500D01*
X55455000Y-181956700D02*
X48421600Y-188990100D01*
X55455000Y-181109000D02*
X55455000Y-181956700D01*
X56199400Y-180364600D02*
X55455000Y-181109000D01*
X57052300Y-180364600D02*
X56199400Y-180364600D01*
X57977100Y-179439800D02*
X57052300Y-180364600D01*
X57977100Y-178547700D02*
X57977100Y-179439800D01*
X66509500Y-170015300D02*
X57977100Y-178547700D01*
X67441800Y-170015300D02*
X66509500Y-170015300D01*
X68249700Y-169207400D02*
X67441800Y-170015300D01*
X68249700Y-168840000D02*
X68249700Y-169207400D01*
X69425000Y-168840000D02*
X68249700Y-168840000D01*
X42105000Y-192275000D02*
X43280300Y-192275000D01*
%TO.N,/K4*%
X38200300Y-192642300D02*
X38200300Y-192275000D01*
X39929900Y-194371900D02*
X38200300Y-192642300D01*
X65846600Y-194371900D02*
X39929900Y-194371900D01*
X71501200Y-188717300D02*
X65846600Y-194371900D01*
X71501200Y-168743500D02*
X71501200Y-188717300D01*
X70233000Y-167475300D02*
X71501200Y-168743500D01*
X69425000Y-167475300D02*
X70233000Y-167475300D01*
X69425000Y-166300000D02*
X69425000Y-167475300D01*
X37025000Y-192275000D02*
X38200300Y-192275000D01*
%TO.N,/A3*%
X21808100Y-162284700D02*
X21000000Y-162284700D01*
X22175300Y-161917500D02*
X21808100Y-162284700D01*
X22175300Y-160622300D02*
X22175300Y-161917500D01*
X23071000Y-159726600D02*
X22175300Y-160622300D01*
X25425900Y-159726600D02*
X23071000Y-159726600D01*
X29459300Y-163760000D02*
X25425900Y-159726600D01*
X46565000Y-163760000D02*
X29459300Y-163760000D01*
X21000000Y-163460000D02*
X21000000Y-162284700D01*
%TO.N,/B3*%
X33095300Y-151907300D02*
X33095300Y-151540000D01*
X43772700Y-162584700D02*
X33095300Y-151907300D01*
X47121800Y-162584700D02*
X43772700Y-162584700D01*
X47929700Y-163392600D02*
X47121800Y-162584700D01*
X47929700Y-163760000D02*
X47929700Y-163392600D01*
X49105000Y-163760000D02*
X47929700Y-163760000D01*
X31920000Y-151540000D02*
X33095300Y-151540000D01*
%TO.N,/K3*%
X49359900Y-147095100D02*
X47730000Y-148725000D01*
X57000500Y-147095100D02*
X49359900Y-147095100D01*
X68249700Y-158344300D02*
X57000500Y-147095100D01*
X68249700Y-162217500D02*
X68249700Y-158344300D01*
X68616900Y-162584700D02*
X68249700Y-162217500D01*
X69425000Y-162584700D02*
X68616900Y-162584700D01*
X69425000Y-163760000D02*
X69425000Y-162584700D01*
%TO.N,/C2*%
X35635300Y-149808100D02*
X35635300Y-149000000D01*
X36002500Y-150175300D02*
X35635300Y-149808100D01*
X38496700Y-150175300D02*
X36002500Y-150175300D01*
X45369100Y-157047700D02*
X38496700Y-150175300D01*
X46595200Y-157047700D02*
X45369100Y-157047700D01*
X47929600Y-158382100D02*
X46595200Y-157047700D01*
X47929600Y-159169400D02*
X47929600Y-158382100D01*
X48804900Y-160044700D02*
X47929600Y-159169400D01*
X49661800Y-160044700D02*
X48804900Y-160044700D01*
X50469700Y-160852600D02*
X49661800Y-160044700D01*
X50469700Y-161220000D02*
X50469700Y-160852600D01*
X51645000Y-161220000D02*
X50469700Y-161220000D01*
X34460000Y-149000000D02*
X35635300Y-149000000D01*
%TO.N,/D2*%
X53009700Y-163570600D02*
X54185000Y-162395300D01*
X53009700Y-179489500D02*
X53009700Y-163570600D01*
X53735500Y-180215300D02*
X53009700Y-179489500D01*
X54701700Y-180215300D02*
X53735500Y-180215300D01*
X55549700Y-179367300D02*
X54701700Y-180215300D01*
X55549700Y-179000000D02*
X55549700Y-179367300D01*
X56725000Y-179000000D02*
X55549700Y-179000000D01*
X54185000Y-161220000D02*
X54185000Y-162395300D01*
X79965000Y-173540000D02*
X79965000Y-171000000D01*
%TO.N,/F2*%
X46365300Y-151687400D02*
X46365300Y-151265000D01*
X52915000Y-158237100D02*
X46365300Y-151687400D01*
X52915000Y-159111000D02*
X52915000Y-158237100D01*
X53848700Y-160044700D02*
X52915000Y-159111000D01*
X57281800Y-160044700D02*
X53848700Y-160044700D01*
X58089700Y-160852600D02*
X57281800Y-160044700D01*
X58089700Y-161220000D02*
X58089700Y-160852600D01*
X59265000Y-161220000D02*
X58089700Y-161220000D01*
X45190000Y-151265000D02*
X46365300Y-151265000D01*
%TO.N,/G2*%
X50637400Y-149900300D02*
X50270000Y-149900300D01*
X51445300Y-150708200D02*
X50637400Y-149900300D01*
X51445300Y-151712600D02*
X51445300Y-150708200D01*
X57995000Y-158262300D02*
X51445300Y-151712600D01*
X57995000Y-159094200D02*
X57995000Y-158262300D01*
X58945500Y-160044700D02*
X57995000Y-159094200D01*
X59821800Y-160044700D02*
X58945500Y-160044700D01*
X60629700Y-160852600D02*
X59821800Y-160044700D01*
X60629700Y-161220000D02*
X60629700Y-160852600D01*
X61805000Y-161220000D02*
X60629700Y-161220000D01*
X50270000Y-148725000D02*
X50270000Y-149900300D01*
%TO.N,/H2*%
X63169700Y-157909400D02*
X56525300Y-151265000D01*
X63169700Y-159236800D02*
X63169700Y-157909400D01*
X63977600Y-160044700D02*
X63169700Y-159236800D01*
X64345000Y-160044700D02*
X63977600Y-160044700D01*
X64345000Y-161220000D02*
X64345000Y-160044700D01*
X55350000Y-151265000D02*
X56525300Y-151265000D01*
%TO.N,/G1*%
X53177400Y-149900300D02*
X52810000Y-149900300D01*
X53985300Y-150708200D02*
X53177400Y-149900300D01*
X53985300Y-151588100D02*
X53985300Y-150708200D01*
X60629700Y-158232500D02*
X53985300Y-151588100D01*
X60629700Y-158680000D02*
X60629700Y-158232500D01*
X61805000Y-158680000D02*
X60629700Y-158680000D01*
X52810000Y-148725000D02*
X52810000Y-149900300D01*
%TO.N,/H1*%
X56525300Y-149685000D02*
X56525300Y-148725000D01*
X64345000Y-157504700D02*
X56525300Y-149685000D01*
X64345000Y-158680000D02*
X64345000Y-157504700D01*
X55350000Y-148725000D02*
X56525300Y-148725000D01*
%TO.N,/J1*%
X43825300Y-150897600D02*
X43825300Y-151265000D01*
X44633200Y-150089700D02*
X43825300Y-150897600D01*
X48123100Y-150089700D02*
X44633200Y-150089700D01*
X48905400Y-149307400D02*
X48123100Y-150089700D01*
X48905400Y-148423200D02*
X48905400Y-149307400D01*
X49783100Y-147545500D02*
X48905400Y-148423200D01*
X56332100Y-147545500D02*
X49783100Y-147545500D01*
X66885000Y-158098400D02*
X56332100Y-147545500D01*
X66885000Y-158680000D02*
X66885000Y-158098400D01*
X42650000Y-151265000D02*
X43825300Y-151265000D01*
%TD*%
M02*
