M48
; DRILL file {KiCad (6.0.2-0)} date 2022 July 14, Thursday 16:09:10
; FORMAT={-:-/ absolute / metric / decimal}
; #@! TF.CreationDate,2022-07-14T16:09:10+02:00
; #@! TF.GenerationSoftware,Kicad,Pcbnew,(6.0.2-0)
; #@! TF.FileFunction,Plated,1,2,PTH
FMAT,2
METRIC
; #@! TA.AperFunction,Plated,PTH,ComponentDrill
T1C1.000
; #@! TA.AperFunction,Plated,PTH,ComponentDrill
T2C3.200
%
G90
G05
T1
X21.0Y-160.92
X21.0Y-163.46
X21.0Y-166.0
X21.0Y-168.54
X21.0Y-171.08
X21.0Y-173.62
X21.0Y-176.16
X21.0Y-178.7
X23.54Y-160.92
X23.54Y-163.46
X23.54Y-166.0
X23.54Y-168.54
X23.54Y-171.08
X23.54Y-173.62
X23.54Y-176.16
X23.54Y-178.7
X29.38Y-149.0
X29.38Y-151.54
X31.92Y-149.0
X31.92Y-151.54
X34.46Y-149.0
X34.46Y-151.54
X37.0Y-149.0
X37.0Y-151.54
X37.025Y-189.735
X37.025Y-192.275
X39.565Y-189.735
X39.565Y-192.275
X42.105Y-189.735
X42.105Y-192.275
X42.65Y-148.725
X42.65Y-151.265
X44.645Y-189.735
X44.645Y-192.275
X45.19Y-148.725
X45.19Y-151.265
X46.565Y-158.68
X46.565Y-161.22
X46.565Y-163.76
X46.565Y-166.3
X46.565Y-168.84
X46.565Y-171.38
X46.565Y-173.92
X46.565Y-176.46
X46.565Y-179.0
X46.565Y-181.54
X47.185Y-189.735
X47.185Y-192.275
X47.73Y-148.725
X47.73Y-151.265
X49.105Y-158.68
X49.105Y-161.22
X49.105Y-163.76
X49.105Y-166.3
X49.105Y-168.84
X49.105Y-171.38
X49.105Y-173.92
X49.105Y-176.46
X49.105Y-179.0
X49.105Y-181.54
X49.725Y-189.735
X49.725Y-192.275
X50.27Y-148.725
X50.27Y-151.265
X51.645Y-158.68
X51.645Y-161.22
X51.645Y-163.76
X51.645Y-176.46
X51.645Y-179.0
X51.645Y-181.54
X52.265Y-189.735
X52.265Y-192.275
X52.81Y-148.725
X52.81Y-151.265
X54.185Y-158.68
X54.185Y-161.22
X54.185Y-179.0
X54.185Y-181.54
X54.805Y-189.735
X54.805Y-192.275
X55.35Y-148.725
X55.35Y-151.265
X56.725Y-158.68
X56.725Y-161.22
X56.725Y-179.0
X56.725Y-181.54
X57.345Y-189.735
X57.345Y-192.275
X59.265Y-158.68
X59.265Y-161.22
X59.265Y-179.0
X59.265Y-181.54
X59.885Y-189.735
X59.885Y-192.275
X61.805Y-158.68
X61.805Y-161.22
X61.805Y-179.0
X61.805Y-181.54
X62.425Y-189.735
X62.425Y-192.275
X64.345Y-158.68
X64.345Y-161.22
X64.345Y-163.76
X64.345Y-176.46
X64.345Y-179.0
X64.345Y-181.54
X64.965Y-189.735
X64.965Y-192.275
X66.885Y-158.68
X66.885Y-161.22
X66.885Y-163.76
X66.885Y-166.3
X66.885Y-168.84
X66.885Y-171.38
X66.885Y-173.92
X66.885Y-176.46
X66.885Y-179.0
X66.885Y-181.54
X69.425Y-158.68
X69.425Y-161.22
X69.425Y-163.76
X69.425Y-166.3
X69.425Y-168.84
X69.425Y-171.38
X69.425Y-173.92
X69.425Y-176.46
X69.425Y-179.0
X69.425Y-181.54
X77.425Y-165.92
X77.425Y-168.46
X77.425Y-171.0
X77.425Y-173.54
X79.965Y-165.92
X79.965Y-168.46
X79.965Y-171.0
X79.965Y-173.54
T2
X22.425Y-151.92
X22.425Y-187.48
X78.425Y-158.0
X78.425Y-187.48
T0
M30
