<?xml version="1.0" encoding="UTF-8"?><svg xmlns="http://www.w3.org/2000/svg" viewBox="0 0 198.71 142.02"><defs><style>.c{stroke-width:.71px;}.c,.d,.e,.f,.g,.h,.i,.j{stroke-linecap:round;stroke-linejoin:round;}.c,.d,.f,.g,.h,.i,.j{stroke:#000;}.d{fill-rule:evenodd;}.d,.e,.j{stroke-width:0px;}.e{fill:#fff;stroke:#fff;}.f{stroke-width:.85px;}.g{stroke-width:.28px;}.h{stroke-width:2.13px;}.i{stroke-width:1.06px;}</style></defs><g id="a"/><g id="b"><g transform="rotate(-90.000000 68625000.000000 25702500.000000)"><g><path class="f" d="M2.68,56.86H6.93v1.01l-.2,.61-.4,.4-.4,.2-.81,.2h-.61l-.81-.2-.4-.2-.4-.4-.2-.61v-1.01"/><path class="f" d="M3.9,60.91v2.02"/><path class="f" d="M2.68,60.5l4.25,1.42-4.25,1.42"/><path class="f" d="M6.93,64.15v2.43"/><path class="f" d="M2.68,65.36H6.93"/><path class="f" d="M3.9,67.79v2.02"/><path class="f" d="M2.68,67.39l4.25,1.42-4.25,1.42"/><path class="f" d="M2.28,70.63v3.24"/><path class="f" d="M4.91,76.3l-.2,.61-.2,.2-.4,.2h-.61l-.4-.2-.2-.2-.2-.4v-1.62H6.93v1.42l-.2,.4-.2,.2-.4,.2h-.4l-.4-.2-.2-.2-.2-.4v-1.42"/><path class="f" d="M6.93,79.13H3.49l-.4,.2-.2,.2-.2,.4v.81l.2,.4,.2,.2,.4,.2h3.44"/><path class="f" d="M2.89,83.38l-.2,.61v1.01l.2,.4,.2,.2,.4,.2h.4l.4-.2,.2-.2,.2-.4,.2-.81,.2-.4,.2-.2,.4-.2h.4l.4,.2,.2,.2,.2,.4v1.01l-.2,.61"/></g><g><path class="f" d="M109.57,.51V4.77h-1.62l-.4-.2-.2-.2-.2-.4v-.61l.2-.4,.2-.2,.4-.2h1.62"/><path class="f" d="M102.89,.92l.2-.2,.61-.2h.4l.61,.2,.4,.4,.2,.4,.2,.81v.61l-.2,.81-.2,.4-.4,.4-.61,.2h-.4l-.61-.2-.2-.2"/><path class="f" d="M101.27,.72l-.61-.2h-1.01l-.4,.2-.2,.2-.2,.4v.4l.2,.4,.2,.2,.4,.2,.81,.2,.4,.2,.2,.2,.2,.4v.4l-.2,.4-.2,.2-.4,.2h-1.01l-.61-.2"/><path class="f" d="M94.59,.92l.2-.2,.61-.2h.4l.61,.2,.4,.4,.2,.4,.2,.81v.61l-.2,.81-.2,.4-.4,.4-.61,.2h-.4l-.61-.2-.2-.2"/><path class="f" d="M92.97,.72l-.61-.2h-1.01l-.4,.2-.2,.2-.2,.4v.4l.2,.4,.2,.2,.4,.2,.81,.2,.4,.2,.2,.2,.2,.4v.4l-.2,.4-.2,.2-.4,.2h-1.01l-.61-.2"/><path class="f" d="M89.33,4.77h-2.43"/><path class="f" d="M88.11,.51V4.77"/><path class="f" d="M85.48,.51V4.77"/><path class="f" d="M81.02,.92l.2-.2,.61-.2h.4l.61,.2,.4,.4,.2,.4,.2,.81v.61l-.2,.81-.2,.4-.4,.4-.61,.2h-.4l-.61-.2-.2-.2"/></g><g><path class="f" d="M61.56,3.42l-.61-.2-.2-.2-.2-.4v-.61l.2-.4,.2-.2,.4-.2h1.62V5.45h-1.42l-.4-.2-.2-.2-.2-.4v-.4l.2-.4,.2-.2,.4-.2h1.42"/><path class="f" d="M58.73,5.45V2l-.2-.4-.2-.2-.4-.2h-.81l-.4,.2-.2,.2-.2,.4v3.44"/><path class="f" d="M54.48,1.4l-.61-.2h-1.01l-.4,.2-.2,.2-.2,.4v.4l.2,.4,.2,.2,.4,.2,.81,.2,.4,.2,.2,.2,.2,.4v.4l-.2,.4-.2,.2-.4,.2h-1.01l-.61-.2"/><path class="f" d="M51.24,.79h-3.24"/><path class="f" d="M44.55,1.6l.2-.2,.61-.2h.4l.61,.2,.4,.4,.2,.4,.2,.81v.61l-.2,.81-.2,.4-.4,.4-.61,.2h-.4l-.61-.2-.2-.2"/><path class="f" d="M43.34,5.45h-2.43"/><path class="f" d="M42.12,1.19V5.45"/><path class="f" d="M37.47,1.19h2.02V5.45"/></g><g><path class="f" d="M25.36,137.14h2.02"/><path class="f" d="M24.96,138.36l1.42-4.25,1.42,4.25"/><path class="f" d="M29.21,138.36v-4.25h1.01l.61,.2,.4,.4,.2,.4,.2,.81v.61l-.2,.81-.2,.4-.4,.4-.61,.2h-1.01"/><path class="f" d="M35.89,138.36l-1.42-2.02"/><path class="f" d="M33.46,138.36v-4.25h1.62l.4,.2,.2,.2,.2,.4v.61l-.2,.4-.2,.2-.4,.2h-1.62"/><path class="f" d="M36.7,138.76h3.24"/><path class="f" d="M42.37,136.13l.61,.2,.2,.2,.2,.4v.61l-.2,.4-.2,.2-.4,.2h-1.62v-4.25h1.42l.4,.2,.2,.2,.2,.4v.4l-.2,.4-.2,.2-.4,.2h-1.42"/><path class="f" d="M45.2,134.1v3.44l.2,.4,.2,.2,.4,.2h.81l.4-.2,.2-.2,.2-.4v-3.44"/><path class="f" d="M49.45,138.15l.61,.2h1.01l.4-.2,.2-.2,.2-.4v-.4l-.2-.4-.2-.2-.4-.2-.81-.2-.4-.2-.2-.2-.2-.4v-.4l.2-.4,.2-.2,.4-.2h1.01l.61,.2"/></g><g><path class="f" d="M192.2,80.35l4.25-1.42-4.25-1.42"/><path class="f" d="M196.86,77.11v-3.24"/><path class="f" d="M195.24,73.06v-2.02"/><path class="f" d="M196.45,73.46l-4.25-1.42,4.25-1.42"/><path class="f" d="M192.2,69.21h3.44l.4-.2,.2-.2,.2-.4v-.81l-.2-.4-.2-.2-.4-.2h-3.44"/><path class="f" d="M192.2,65.16l4.25-2.83"/><path class="f" d="M192.2,62.33l4.25,2.83"/></g></g><g><path class="h" d="M138.14,9.88l-1.06,8.5"/><path class="h" d="M141.64,14.34l.3,.81,.76,.4"/><path class="h" d="M137.59,14.34l.3,.81,.76,.4h1.62l.86-.4,.51-.81,.56-4.45"/></g><g><g><path class="i" d="M146.74,13.04v-4.25l1.42,3.04,1.42-3.04v4.25"/><path class="i" d="M151.6,13.04v-4.25"/><path class="i" d="M156.06,12.64l-.2,.2-.61,.2h-.4l-.61-.2-.4-.4-.2-.4-.2-.81v-.61l.2-.81,.2-.4,.4-.4,.61-.2h.4l.61,.2,.2,.2"/><path class="i" d="M160.31,13.04l-1.42-2.02"/><path class="i" d="M157.88,13.04v-4.25h1.62l.4,.2,.2,.2,.2,.4v.61l-.2,.4-.2,.2-.4,.2h-1.62"/><path class="i" d="M162.94,8.79h.81l.4,.2,.4,.4,.2,.81v1.42l-.2,.81-.4,.4-.4,.2h-.81l-.4-.2-.4-.4-.2-.81v-1.42l.2-.81,.4-.4,.4-.2"/><path class="i" d="M166.59,13.04v-4.25l2.43,4.25v-4.25"/><path class="i" d="M171.04,13.04v-4.25"/><path class="i" d="M172.66,8.79l2.83,4.25"/><path class="i" d="M175.49,8.79l-2.83,4.25"/><path class="i" d="M182.78,12.64l-.2,.2-.61,.2h-.4l-.61-.2-.4-.4-.2-.4-.2-.81v-.61l.2-.81,.2-.4,.4-.4,.61-.2h.4l.61,.2,.2,.2"/><path class="i" d="M184.61,13.04v-4.25h1.62l.4,.2,.2,.2,.2,.4v.61l-.2,.4-.2,.2-.4,.2h-1.62"/><path class="i" d="M188.86,8.79v3.44l.2,.4,.2,.2,.4,.2h.81l.4-.2,.2-.2,.2-.4v-3.44"/></g><g><path class="i" d="M147.86,17.66l.61,.2,.2,.2,.2,.4v.61l-.2,.4-.2,.2-.4,.2h-1.62v-4.25h1.42l.4,.2,.2,.2,.2,.4v.4l-.2,.4-.2,.2-.4,.2h-1.42"/><path class="i" d="M151.5,15.64h.81l.4,.2,.4,.4,.2,.81v1.42l-.2,.81-.4,.4-.4,.2h-.81l-.4-.2-.4-.4-.2-.81v-1.42l.2-.81,.4-.4,.4-.2"/><path class="i" d="M154.94,18.67h2.02"/><path class="i" d="M154.54,19.89l1.42-4.25,1.42,4.25"/><path class="i" d="M161.22,19.89l-1.42-2.02"/><path class="i" d="M158.79,19.89v-4.25h1.62l.4,.2,.2,.2,.2,.4v.61l-.2,.4-.2,.2-.4,.2h-1.62"/><path class="i" d="M163.04,19.89v-4.25h1.01l.61,.2,.4,.4,.2,.4,.2,.81v.61l-.2,.81-.2,.4-.4,.4-.61,.2h-1.01"/><path class="i" d="M172.96,19.89l-1.42-2.02"/><path class="i" d="M170.53,19.89v-4.25h1.62l.4,.2,.2,.2,.2,.4v.61l-.2,.4-.2,.2-.4,.2h-1.62"/><path class="i" d="M174.79,17.66h1.42"/><path class="i" d="M176.81,19.89h-2.02v-4.25h2.02"/><path class="i" d="M178.03,15.64l1.42,4.25,1.42-4.25"/><path class="i" d="M185.31,16.04l.2-.2,.4-.2h1.01l.4,.2,.2,.2,.2,.4v.4l-.2,.61-2.43,2.43h2.63"/><path class="i" d="M191.59,15.64h-2.02l-.2,2.02,.2-.2,.4-.2h1.01l.4,.2,.2,.2,.2,.4v1.01l-.2,.4-.2,.2-.4,.2h-1.01l-.4-.2-.2-.2"/></g><circle class="j" cx="178.72" cy="37.22" r="7.94"/><circle class="j" cx="178.72" cy="120.78" r="7.94"/><circle class="j" cx="19.98" cy="19.98" r="7.94"/><circle class="j" cx="19.98" cy="120.78" r="7.94"/><g><path class="d" d="M173.48,62.08v-4.82h4.82v4.82h-4.82Z"/><circle class="j" cx="183.09" cy="59.67" r="2.41"/><circle class="j" cx="175.89" cy="66.87" r="2.41"/><circle class="j" cx="183.09" cy="66.87" r="2.41"/><circle class="j" cx="175.89" cy="74.07" r="2.41"/><circle class="j" cx="183.09" cy="74.07" r="2.41"/><circle class="j" cx="175.89" cy="81.27" r="2.41"/><circle class="j" cx="183.09" cy="81.27" r="2.41"/></g><g><path class="d" d="M58.89,9.3h4.82v4.82h-4.82v-4.82Z"/><circle class="j" cx="61.3" cy="18.91" r="2.41"/><circle class="j" cx="54.1" cy="11.71" r="2.41"/><circle class="j" cx="54.1" cy="18.91" r="2.41"/><circle class="j" cx="46.9" cy="11.71" r="2.41"/><circle class="j" cx="46.9" cy="18.91" r="2.41"/><circle class="j" cx="39.7" cy="11.71" r="2.41"/><circle class="j" cx="39.7" cy="18.91" r="2.41"/></g><g><path class="d" d="M110.91,8.52h4.82v4.82h-4.82v-4.82Z"/><circle class="j" cx="113.31" cy="18.13" r="2.41"/><circle class="j" cx="106.11" cy="10.93" r="2.41"/><circle class="j" cx="106.11" cy="18.13" r="2.41"/><circle class="j" cx="98.91" cy="10.93" r="2.41"/><circle class="j" cx="98.91" cy="18.13" r="2.41"/><circle class="j" cx="91.71" cy="10.93" r="2.41"/><circle class="j" cx="91.71" cy="18.13" r="2.41"/><circle class="j" cx="84.51" cy="10.93" r="2.41"/><circle class="j" cx="84.51" cy="18.13" r="2.41"/><circle class="j" cx="77.31" cy="10.93" r="2.41"/><circle class="j" cx="77.31" cy="18.13" r="2.41"/></g><g><path class="d" d="M13.54,47.91v-4.82h4.82v4.82h-4.82Z"/><circle class="j" cx="23.14" cy="45.5" r="2.41"/><circle class="j" cx="15.94" cy="52.7" r="2.41"/><circle class="j" cx="23.14" cy="52.7" r="2.41"/><circle class="j" cx="15.94" cy="59.9" r="2.41"/><circle class="j" cx="23.14" cy="59.9" r="2.41"/><circle class="j" cx="15.94" cy="67.1" r="2.41"/><circle class="j" cx="23.14" cy="67.1" r="2.41"/><circle class="j" cx="15.94" cy="74.3" r="2.41"/><circle class="j" cx="23.14" cy="74.3" r="2.41"/><circle class="j" cx="15.94" cy="81.5" r="2.41"/><circle class="j" cx="23.14" cy="81.5" r="2.41"/><circle class="j" cx="15.94" cy="88.7" r="2.41"/><circle class="j" cx="23.14" cy="88.7" r="2.41"/><circle class="j" cx="15.94" cy="95.9" r="2.41"/><circle class="j" cx="23.14" cy="95.9" r="2.41"/></g><g><path class="d" d="M63.78,136.79h-4.82v-4.82h4.82v4.82Z"/><circle class="j" cx="61.37" cy="127.18" r="2.41"/><circle class="j" cx="68.57" cy="134.38" r="2.41"/><circle class="j" cx="68.57" cy="127.18" r="2.41"/><circle class="j" cx="75.77" cy="134.38" r="2.41"/><circle class="j" cx="75.77" cy="127.18" r="2.41"/><circle class="j" cx="82.97" cy="134.38" r="2.41"/><circle class="j" cx="82.97" cy="127.18" r="2.41"/><circle class="j" cx="90.17" cy="134.38" r="2.41"/><circle class="j" cx="90.17" cy="127.18" r="2.41"/><circle class="j" cx="97.37" cy="134.38" r="2.41"/><circle class="j" cx="97.37" cy="127.18" r="2.41"/><circle class="j" cx="104.57" cy="134.38" r="2.41"/><circle class="j" cx="104.57" cy="127.18" r="2.41"/><circle class="j" cx="111.77" cy="134.38" r="2.41"/><circle class="j" cx="111.77" cy="127.18" r="2.41"/><circle class="j" cx="118.97" cy="134.38" r="2.41"/><circle class="j" cx="118.97" cy="127.18" r="2.41"/><circle class="j" cx="126.17" cy="134.38" r="2.41"/><circle class="j" cx="126.17" cy="127.18" r="2.41"/><circle class="j" cx="133.37" cy="134.38" r="2.41"/><circle class="j" cx="133.37" cy="127.18" r="2.41"/><circle class="j" cx="140.57" cy="134.38" r="2.41"/><circle class="j" cx="140.57" cy="127.18" r="2.41"/></g><g><path class="d" d="M150.8,51.14h4.82v4.82h-4.82v-4.82Z"/><circle class="j" cx="146.01" cy="53.55" r="2.41"/><circle class="j" cx="138.81" cy="53.55" r="2.41"/></g><g><path class="d" d="M93.2,65.54h4.82v4.82h-4.82v-4.82Z"/><circle class="j" cx="88.41" cy="67.95" r="2.41"/></g><g><path class="d" d="M150.8,36.74h4.82v4.82h-4.82v-4.82Z"/><circle class="j" cx="146.01" cy="39.15" r="2.41"/><circle class="j" cx="138.81" cy="39.15" r="2.41"/><circle class="j" cx="131.61" cy="39.15" r="2.41"/><circle class="j" cx="124.41" cy="39.15" r="2.41"/><circle class="j" cx="117.21" cy="39.15" r="2.41"/><circle class="j" cx="110.01" cy="39.15" r="2.41"/><circle class="j" cx="102.81" cy="39.15" r="2.41"/><circle class="j" cx="95.61" cy="39.15" r="2.41"/><circle class="j" cx="88.41" cy="39.15" r="2.41"/></g><g><path class="d" d="M150.8,65.54h4.82v4.82h-4.82v-4.82Z"/><circle class="j" cx="146.01" cy="67.95" r="2.41"/></g><g><path class="d" d="M93.2,79.94h4.82v4.82h-4.82v-4.82Z"/><circle class="j" cx="88.41" cy="82.35" r="2.41"/></g><g><path class="d" d="M150.8,79.94h4.82v4.82h-4.82v-4.82Z"/><circle class="j" cx="146.01" cy="82.35" r="2.41"/></g><g><path class="d" d="M150.8,87.14h4.82v4.82h-4.82v-4.82Z"/><circle class="j" cx="146.01" cy="89.55" r="2.41"/><circle class="j" cx="138.81" cy="89.55" r="2.41"/></g><g><path class="d" d="M150.8,58.34h4.82v4.82h-4.82v-4.82Z"/><circle class="j" cx="146.01" cy="60.75" r="2.41"/></g><g><path class="d" d="M150.8,43.94h4.82v4.82h-4.82v-4.82Z"/><circle class="j" cx="146.01" cy="46.35" r="2.41"/><circle class="j" cx="138.81" cy="46.35" r="2.41"/><circle class="j" cx="131.61" cy="46.35" r="2.41"/><circle class="j" cx="124.41" cy="46.35" r="2.41"/><circle class="j" cx="117.21" cy="46.35" r="2.41"/><circle class="j" cx="110.01" cy="46.35" r="2.41"/><circle class="j" cx="102.81" cy="46.35" r="2.41"/><circle class="j" cx="95.61" cy="46.35" r="2.41"/><circle class="j" cx="88.41" cy="46.35" r="2.41"/></g><g><path class="d" d="M100.4,51.14h4.82v4.82h-4.82v-4.82Z"/><circle class="j" cx="95.61" cy="53.55" r="2.41"/><circle class="j" cx="88.41" cy="53.55" r="2.41"/></g><g><path class="d" d="M93.2,72.74h4.82v4.82h-4.82v-4.82Z"/><circle class="j" cx="88.41" cy="75.15" r="2.41"/></g><g><path class="d" d="M100.4,87.14h4.82v4.82h-4.82v-4.82Z"/><circle class="j" cx="95.61" cy="89.55" r="2.41"/><circle class="j" cx="88.41" cy="89.55" r="2.41"/></g><g><path class="d" d="M93.2,58.34h4.82v4.82h-4.82v-4.82Z"/><circle class="j" cx="88.41" cy="60.75" r="2.41"/></g><g><path class="d" d="M150.8,101.54h4.82v4.82h-4.82v-4.82Z"/><circle class="j" cx="146.01" cy="103.95" r="2.41"/><circle class="j" cx="138.81" cy="103.95" r="2.41"/><circle class="j" cx="131.61" cy="103.95" r="2.41"/><circle class="j" cx="124.41" cy="103.95" r="2.41"/><circle class="j" cx="117.21" cy="103.95" r="2.41"/><circle class="j" cx="110.01" cy="103.95" r="2.41"/><circle class="j" cx="102.81" cy="103.95" r="2.41"/><circle class="j" cx="95.61" cy="103.95" r="2.41"/><circle class="j" cx="88.41" cy="103.95" r="2.41"/></g><g><path class="d" d="M150.8,94.34h4.82v4.82h-4.82v-4.82Z"/><circle class="j" cx="146.01" cy="96.75" r="2.41"/><circle class="j" cx="138.81" cy="96.75" r="2.41"/><circle class="j" cx="131.61" cy="96.75" r="2.41"/><circle class="j" cx="124.41" cy="96.75" r="2.41"/><circle class="j" cx="117.21" cy="96.75" r="2.41"/><circle class="j" cx="110.01" cy="96.75" r="2.41"/><circle class="j" cx="102.81" cy="96.75" r="2.41"/><circle class="j" cx="95.61" cy="96.75" r="2.41"/><circle class="j" cx="88.41" cy="96.75" r="2.41"/></g><g><path class="d" d="M150.8,72.74h4.82v4.82h-4.82v-4.82Z"/><circle class="j" cx="146.01" cy="75.15" r="2.41"/></g><g><path class="c" d="M93.5,125.37v1.81"/><path class="c" d="M113.88,104.99l-20.38,20.38"/><path class="c" d="M113.88,103.95v1.04"/><path class="c" d="M117.21,103.95h-3.33"/><path class="c" d="M90.17,127.18h3.33"/><path class="c" d="M100.7,125.37v1.81"/><path class="c" d="M121.08,104.99l-20.38,20.38"/><path class="c" d="M121.08,103.95v1.04"/><path class="c" d="M124.41,103.95h-3.33"/><path class="c" d="M97.37,127.18h3.33"/><path class="c" d="M115.05,123.84l16.57-16.57"/><path class="c" d="M111.77,123.84h3.28"/><path class="c" d="M131.61,103.95v3.33"/><path class="c" d="M111.77,127.18v-3.33"/><path class="c" d="M135.54,107.28l-16.57,16.57"/><path class="c" d="M138.81,107.28h-3.28"/><path class="c" d="M118.97,127.18v-3.33"/><path class="c" d="M138.81,103.95v3.33"/><path class="c" d="M146.01,111.2v-7.26"/><path class="c" d="M133.37,123.84l12.64-12.64"/><path class="c" d="M133.37,127.18v-3.33"/><path class="c" d="M88.41,96.75h-3.33"/><path class="c" d="M23.14,81.5h-3.33"/><path class="c" d="M81.32,100.51l3.76-3.76"/><path class="c" d="M13.92,100.51H81.32"/><path class="c" d="M11.22,97.81l2.7,2.7"/><path class="c" d="M11.22,88.61v9.2"/><path class="c" d="M15,84.83l-3.78,3.78"/><path class="c" d="M17.52,84.83h-2.52"/><path class="c" d="M19.81,82.54l-2.29,2.29"/><path class="c" d="M19.81,81.5v1.04"/><path class="c" d="M102.81,96.75v3.33"/><path class="c" d="M68.57,127.18h3.33"/><path class="c" d="M71.9,126.13v1.04"/><path class="c" d="M77.52,120.52l-5.61,5.61"/><path class="c" d="M83.76,120.52h-6.24"/><path class="c" d="M99.48,104.8l-15.72,15.72"/><path class="c" d="M99.48,102.37v2.43"/><path class="c" d="M101.77,100.08l-2.29,2.29"/><path class="c" d="M102.81,100.08h-1.04"/><path class="c" d="M175.89,59.67h7.2"/><path class="c" d="M106.68,95.71v1.04"/><path class="c" d="M104.39,93.41l2.29,2.29"/><path class="c" d="M94.11,93.41h10.28"/><path class="c" d="M92.2,95.33l1.91-1.91"/><path class="c" d="M92.2,97.79v-2.46"/><path class="c" d="M89.87,100.11l2.32-2.32"/><path class="c" d="M85.11,100.11h4.77"/><path class="c" d="M61.37,123.84l23.74-23.74"/><path class="c" d="M61.37,127.18v-3.33"/><path class="c" d="M110.01,96.75h-3.33"/><path class="c" d="M137.24,135.42v-1.04"/><path class="c" d="M134.95,137.71l2.29-2.29"/><path class="c" d="M117.51,137.71h17.44"/><path class="c" d="M115.62,135.82l1.88,1.88"/><path class="c" d="M115.62,125.16v10.66"/><path class="c" d="M135.48,105.31l-19.86,19.86"/><path class="c" d="M135.48,102.37v2.94"/><path class="c" d="M137.77,100.08l-2.29,2.29"/><path class="c" d="M138.81,100.08h-1.04"/><path class="c" d="M138.81,96.75v3.33"/><path class="c" d="M140.57,134.38h-3.33"/><path class="c" d="M120.01,131.04h-1.04"/><path class="c" d="M122.3,128.75l-2.29,2.29"/><path class="c" d="M122.3,125.83v2.92"/><path class="c" d="M142.68,105.45l-20.38,20.38"/><path class="c" d="M142.68,102.56v2.89"/><path class="c" d="M145.16,100.08l-2.48,2.48"/><path class="c" d="M147.59,100.08h-2.43"/><path class="c" d="M149.88,97.79l-2.29,2.29"/><path class="c" d="M149.88,96.75v1.04"/><path class="c" d="M153.21,96.75h-3.33"/><path class="c" d="M118.97,134.38v-3.33"/><path class="c" d="M88.41,89.55h-3.33"/><path class="c" d="M76.93,95.9H23.14"/><path class="c" d="M83.28,89.55l-6.35,6.35"/><path class="c" d="M85.08,89.55h-1.81"/><path class="c" d="M76.67,74.3H23.14"/><path class="c" d="M79.21,71.76l-2.53,2.53"/><path class="c" d="M98.38,71.76h-19.17"/><path class="c" d="M98.99,72.37l-.61-.61"/><path class="c" d="M98.99,85.13v-12.76"/><path class="c" d="M97.9,86.21l1.08-1.08"/><path class="c" d="M95.61,86.21h2.29"/><path class="c" d="M95.61,89.55v-3.33"/><path class="c" d="M129.5,133.33v1.04"/><path class="c" d="M131.79,131.04l-2.29,2.29"/><path class="c" d="M134.32,131.04h-2.53"/><path class="c" d="M136.7,128.67l-2.38,2.38"/><path class="c" d="M136.7,126.13v2.54"/><path class="c" d="M155.55,107.28l-18.85,18.85"/><path class="c" d="M156.02,107.28h-.47"/><path class="c" d="M156.54,106.75l-.53,.53"/><path class="c" d="M156.54,93.78v12.97"/><path class="c" d="M155.64,92.88l.9,.9"/><path class="c" d="M150.39,92.88h5.26"/><path class="c" d="M149.34,91.84l1.04,1.04"/><path class="c" d="M149.34,89.55v2.29"/><path class="c" d="M146.01,89.55h3.33"/><path class="c" d="M126.17,134.38h3.33"/><path class="c" d="M107.9,135.42v-1.04"/><path class="c" d="M111.5,139.02l-3.6-3.6"/><path class="c" d="M140.8,139.02h-29.3"/><path class="c" d="M157.9,121.92l-17.1,17.1"/><path class="c" d="M157.9,90.9v31.02"/><path class="c" d="M156.54,89.55l1.36,1.36"/><path class="c" d="M153.21,89.55h3.33"/><path class="c" d="M104.57,134.38h3.33"/><path class="c" d="M19.28,94.85v1.04"/><path class="c" d="M21.57,92.56l-2.29,2.29"/><path class="c" d="M74.86,92.56H21.57"/><path class="c" d="M85.08,82.35l-10.22,10.22"/><path class="c" d="M88.41,82.35h-3.33"/><path class="c" d="M15.94,95.9h3.33"/><path class="c" d="M19.28,92.56l3.87-3.87"/><path class="c" d="M14.56,92.56h4.71"/><path class="c" d="M12.5,94.63l2.07-2.07"/><path class="c" d="M12.5,97.28v-2.65"/><path class="c" d="M14.45,99.23l-1.95-1.95"/><path class="c" d="M76.29,99.23H14.45"/><path class="c" d="M82.65,92.88l-6.36,6.36"/><path class="c" d="M90,92.88h-7.34"/><path class="c" d="M91.95,90.92l-1.96,1.96"/><path class="c" d="M91.95,86v4.91"/><path class="c" d="M95.61,82.35l-3.66,3.66"/><path class="c" d="M19.54,77.9l-3.6,3.6"/><path class="c" d="M51.68,77.9H19.54"/><path class="c" d="M53.04,76.53l-1.37,1.37"/><path class="c" d="M83.7,76.53h-30.66"/><path class="c" d="M85.08,75.15l-1.38,1.38"/><path class="c" d="M88.41,75.15h-3.33"/><path class="c" d="M95.61,75.15h-3.33"/><path class="c" d="M15.94,88.7h3.33"/><path class="c" d="M19.28,87.65v1.04"/><path class="c" d="M21.57,85.36l-2.29,2.29"/><path class="c" d="M72.16,85.36H21.57"/><path class="c" d="M78.72,78.8l-6.56,6.56"/><path class="c" d="M89.67,78.8h-10.95"/><path class="c" d="M92.28,76.19l-2.61,2.61"/><path class="c" d="M92.28,75.15v1.04"/><path class="c" d="M86.3,133.33v1.04"/><path class="c" d="M88.59,131.04l-2.29,2.29"/><path class="c" d="M105.55,131.04h-16.96"/><path class="c" d="M107.9,128.69l-2.36,2.36"/><path class="c" d="M107.9,125.21v3.48"/><path class="c" d="M128.01,105.1l-20.11,20.11"/><path class="c" d="M128.01,95.51v9.59"/><path class="c" d="M145.04,78.48l-17.03,17.03"/><path class="c" d="M147.59,78.48h-2.55"/><path class="c" d="M149.88,76.19l-2.29,2.29"/><path class="c" d="M149.88,75.15v1.04"/><path class="c" d="M153.21,75.15h-3.33"/><path class="c" d="M82.97,134.38h3.33"/><path class="c" d="M15.94,74.3h3.33"/><path class="c" d="M88.41,67.95h-3.33"/><path class="c" d="M19.28,73.25v1.04"/><path class="c" d="M21.57,70.96l-2.29,2.29"/><path class="c" d="M77.56,70.96H21.57"/><path class="c" d="M80.58,67.95l-3.02,3.02"/><path class="c" d="M85.08,67.95h-4.5"/><path class="c" d="M19.28,66.05v1.04"/><path class="c" d="M21.57,63.76l-2.29,2.29"/><path class="c" d="M28.54,63.76h-6.97"/><path class="c" d="M29.39,64.61l-.85-.85"/><path class="c" d="M89.99,64.61H29.39"/><path class="c" d="M92.28,66.91l-2.29-2.29"/><path class="c" d="M92.28,67.95v-1.04"/><path class="c" d="M95.61,67.95h-3.33"/><path class="c" d="M15.94,67.1h3.33"/><path class="c" d="M71.9,133.33v1.04"/><path class="c" d="M74.19,131.04l-2.29,2.29"/><path class="c" d="M76.72,131.04h-2.53"/><path class="c" d="M79.1,128.67l-2.38,2.38"/><path class="c" d="M79.1,126.14v2.53"/><path class="c" d="M83.02,122.22l-3.92,3.92"/><path class="c" d="M89.43,122.22h-6.4"/><path class="c" d="M106.41,105.23l-16.99,16.99"/><path class="c" d="M106.41,102.72v2.51"/><path class="c" d="M108.52,100.61l-2.11,2.11"/><path class="c" d="M110.86,100.61h-2.34"/><path class="c" d="M113.88,97.6l-3.02,3.02"/><path class="c" d="M113.88,95.37v2.23"/><path class="c" d="M141.3,67.95l-27.42,27.42"/><path class="c" d="M146.01,67.95h-4.71"/><path class="c" d="M68.57,134.38h3.33"/><path class="c" d="M19.28,58.85v1.04"/><path class="c" d="M21.57,56.56l-2.29,2.29"/><path class="c" d="M80.9,56.56H21.57"/><path class="c" d="M85.08,60.75l-4.18-4.18"/><path class="c" d="M88.41,60.75h-3.33"/><path class="c" d="M15.94,59.9h3.33"/><path class="c" d="M15.94,45.5h3.33"/><path class="c" d="M95.61,60.75h-3.33"/><path class="c" d="M92.28,59.71v1.04"/><path class="c" d="M89.99,57.41l2.29,2.29"/><path class="c" d="M84.18,57.41h5.81"/><path class="c" d="M75.59,48.83l8.59,8.59"/><path class="c" d="M21.57,48.83h54.02"/><path class="c" d="M19.28,46.54l2.29,2.29"/><path class="c" d="M19.28,45.5v1.04"/><path class="c" d="M43.03,19.95v-1.04"/><path class="c" d="M48.8,25.72l-5.77-5.77"/><path class="c" d="M59.59,25.72h-10.79"/><path class="c" d="M84.09,50.21l-24.5-24.5"/><path class="c" d="M97.19,50.21h-13.1"/><path class="c" d="M99.48,52.51l-2.29-2.29"/><path class="c" d="M99.48,53.55v-1.04"/><path class="c" d="M102.81,53.55h-3.33"/><path class="c" d="M39.7,18.91h3.33"/><path class="c" d="M109.45,19.43v-1.3"/><path class="c" d="M128.01,38l-18.57-18.57"/><path class="c" d="M128.01,40.37v-2.37"/><path class="c" d="M130.12,42.48l-2.11-2.11"/><path class="c" d="M132.46,42.48h-2.34"/><path class="c" d="M135.48,45.5l-3.02-3.02"/><path class="c" d="M135.48,47.92v-2.43"/><path class="c" d="M137.77,50.21l-2.29-2.29"/><path class="c" d="M138.81,50.21h-1.04"/><path class="c" d="M138.81,53.55v-3.33"/><path class="c" d="M106.11,18.13h3.33"/><path class="c" d="M87.85,9.89v1.04"/><path class="c" d="M90.14,7.6l-2.29,2.29"/><path class="c" d="M116.16,7.6h-26.02"/><path class="c" d="M142.41,33.85L116.16,7.6"/><path class="c" d="M142.41,40.32v-6.47"/><path class="c" d="M144.74,42.65l-2.33-2.33"/><path class="c" d="M147.26,42.65h-2.51"/><path class="c" d="M149.36,44.75l-2.1-2.1"/><path class="c" d="M149.36,47.91v-3.16"/><path class="c" d="M147.05,50.21l2.31-2.31"/><path class="c" d="M146.01,50.21h1.04"/><path class="c" d="M146.01,53.55v-3.33"/><path class="c" d="M84.51,10.93h3.33"/><path class="c" d="M39.7,11.71h3.33"/><path class="c" d="M43.03,12.75v-1.04"/><path class="c" d="M45.32,15.04l-2.29-2.29"/><path class="c" d="M47.85,15.04h-2.53"/><path class="c" d="M50.23,17.42l-2.38-2.38"/><path class="c" d="M50.23,19.76v-2.34"/><path class="c" d="M52.71,22.24l-2.48-2.48"/><path class="c" d="M57.92,22.24h-5.2"/><path class="c" d="M82.02,46.35l-24.11-24.11"/><path class="c" d="M88.41,46.35h-6.39"/><path class="c" d="M57.43,19.85v-.94"/><path class="c" d="M80.6,43.01l-23.17-23.17"/><path class="c" d="M89.99,43.01h-9.39"/><path class="c" d="M92.28,45.31l-2.29-2.29"/><path class="c" d="M92.28,46.35v-1.04"/><path class="c" d="M95.61,46.35h-3.33"/><path class="c" d="M54.1,18.91h3.33"/><path class="c" d="M179.76,82.3v-1.04"/><path class="c" d="M177.43,84.64l2.33-2.33"/><path class="c" d="M172.59,84.64h4.83"/><path class="c" d="M159.77,71.81l12.82,12.82"/><path class="c" d="M144.43,71.81h15.34"/><path class="c" d="M120.54,95.71l23.89-23.89"/><path class="c" d="M120.54,96.75v-1.04"/><path class="c" d="M117.21,96.75h3.33"/><path class="c" d="M183.09,81.27h-3.33"/><path class="c" d="M102.25,17.09v1.04"/><path class="c" d="M104.54,14.8l-2.29,2.29"/><path class="c" d="M114.77,14.8h-10.24"/><path class="c" d="M135.21,35.24l-20.44-20.44"/><path class="c" d="M135.21,40.37v-5.13"/><path class="c" d="M137.86,43.01l-2.65-2.65"/><path class="c" d="M140.39,43.01h-2.53"/><path class="c" d="M142.68,45.31l-2.29-2.29"/><path class="c" d="M142.68,46.35v-1.04"/><path class="c" d="M146.01,46.35h-3.33"/><path class="c" d="M98.91,18.13h3.33"/><path class="c" d="M153.21,46.35v-3.33"/><path class="c" d="M77.31,10.93h3.33"/><path class="c" d="M80.65,9.89v1.04"/><path class="c" d="M84.21,6.32l-3.57,3.57"/><path class="c" d="M118,6.32h-33.79"/><path class="c" d="M149.88,38.2L118,6.32"/><path class="c" d="M149.88,41.97v-3.77"/><path class="c" d="M150.92,43.01l-1.04-1.04"/><path class="c" d="M153.21,43.01h-2.29"/><path class="c" d="M61.3,18.91h3.33"/><path class="c" d="M95.61,39.15h-3.33"/><path class="c" d="M92.28,38.11v1.04"/><path class="c" d="M83.37,29.2l8.91,8.91"/><path class="c" d="M74.92,29.2h8.45"/><path class="c" d="M64.63,18.91l10.29,10.29"/><path class="c" d="M50.23,12.75v-1.04"/><path class="c" d="M52.52,15.04l-2.29-2.29"/><path class="c" d="M64.79,15.04h-12.27"/><path class="c" d="M75.29,25.54l-10.5-10.5"/><path class="c" d="M86.92,25.54h-11.63"/><path class="c" d="M99.48,38.11l-12.56-12.56"/><path class="c" d="M99.48,39.15v-1.04"/><path class="c" d="M102.81,39.15h-3.33"/><path class="c" d="M46.9,11.71h3.33"/><path class="c" d="M75.19,22.26l-10.56-10.56"/><path class="c" d="M90.84,22.26h-15.65"/><path class="c" d="M106.68,38.11l-15.84-15.84"/><path class="c" d="M106.68,39.15v-1.04"/><path class="c" d="M110.01,39.15h-3.33"/><path class="c" d="M61.3,11.71h3.33"/><path class="c" d="M172.56,81.06v.21"/><path class="c" d="M155.58,64.08l16.98,16.98"/><path class="c" d="M137.2,64.08h18.38"/><path class="c" d="M120.54,47.43l16.65,16.65"/><path class="c" d="M120.54,44.77v2.66"/><path class="c" d="M118.25,42.48l2.29,2.29"/><path class="c" d="M117.21,42.48h1.04"/><path class="c" d="M117.21,39.15v3.33"/><path class="c" d="M175.89,81.27h-3.33"/><path class="c" d="M124.41,39.15h-3.33"/><path class="c" d="M91.71,18.13h3.33"/><path class="c" d="M95.05,19.17v-1.04"/><path class="c" d="M111.16,35.29l-16.12-16.12"/><path class="c" d="M118.26,35.29h-7.1"/><path class="c" d="M121.08,38.11l-2.82-2.82"/><path class="c" d="M121.08,39.15v-1.04"/></g></g><circle class="e" cx="178.72" cy="37.22" r="4.54"/><circle class="e" cx="178.72" cy="120.78" r="4.54"/><circle class="e" cx="19.98" cy="19.98" r="4.54"/><circle class="e" cx="19.98" cy="120.78" r="4.54"/><circle class="e" cx="175.89" cy="59.67" r="1.42"/><circle class="e" cx="183.09" cy="59.67" r="1.42"/><circle class="e" cx="175.89" cy="66.87" r="1.42"/><circle class="e" cx="183.09" cy="66.87" r="1.42"/><circle class="e" cx="175.89" cy="74.07" r="1.42"/><circle class="e" cx="183.09" cy="74.07" r="1.42"/><circle class="e" cx="175.89" cy="81.27" r="1.42"/><circle class="e" cx="183.09" cy="81.27" r="1.42"/><circle class="e" cx="61.3" cy="11.71" r="1.42"/><circle class="e" cx="61.3" cy="18.91" r="1.42"/><circle class="e" cx="54.1" cy="11.71" r="1.42"/><circle class="e" cx="54.1" cy="18.91" r="1.42"/><circle class="e" cx="46.9" cy="11.71" r="1.42"/><circle class="e" cx="46.9" cy="18.91" r="1.42"/><circle class="e" cx="39.7" cy="11.71" r="1.42"/><circle class="e" cx="39.7" cy="18.91" r="1.42"/><circle class="e" cx="113.31" cy="10.93" r="1.42"/><circle class="e" cx="113.31" cy="18.13" r="1.42"/><circle class="e" cx="106.11" cy="10.93" r="1.42"/><circle class="e" cx="106.11" cy="18.13" r="1.42"/><circle class="e" cx="98.91" cy="10.93" r="1.42"/><circle class="e" cx="98.91" cy="18.13" r="1.42"/><circle class="e" cx="91.71" cy="10.93" r="1.42"/><circle class="e" cx="91.71" cy="18.13" r="1.42"/><circle class="e" cx="84.51" cy="10.93" r="1.42"/><circle class="e" cx="84.51" cy="18.13" r="1.42"/><circle class="e" cx="77.31" cy="10.93" r="1.42"/><circle class="e" cx="77.31" cy="18.13" r="1.42"/><circle class="e" cx="15.94" cy="45.5" r="1.42"/><circle class="e" cx="23.14" cy="45.5" r="1.42"/><circle class="e" cx="15.94" cy="52.7" r="1.42"/><circle class="e" cx="23.14" cy="52.7" r="1.42"/><circle class="e" cx="15.94" cy="59.9" r="1.42"/><circle class="e" cx="23.14" cy="59.9" r="1.42"/><circle class="e" cx="15.94" cy="67.1" r="1.42"/><circle class="e" cx="23.14" cy="67.1" r="1.42"/><circle class="e" cx="15.94" cy="74.3" r="1.42"/><circle class="e" cx="23.14" cy="74.3" r="1.42"/><circle class="e" cx="15.94" cy="81.5" r="1.42"/><circle class="e" cx="23.14" cy="81.5" r="1.42"/><circle class="e" cx="15.94" cy="88.7" r="1.42"/><circle class="e" cx="23.14" cy="88.7" r="1.42"/><circle class="e" cx="15.94" cy="95.9" r="1.42"/><circle class="e" cx="23.14" cy="95.9" r="1.42"/><circle class="e" cx="61.37" cy="134.38" r="1.42"/><circle class="e" cx="61.37" cy="127.18" r="1.42"/><circle class="e" cx="68.57" cy="134.38" r="1.42"/><circle class="e" cx="68.57" cy="127.18" r="1.42"/><circle class="e" cx="75.77" cy="134.38" r="1.42"/><circle class="e" cx="75.77" cy="127.18" r="1.42"/><circle class="e" cx="82.97" cy="134.38" r="1.42"/><circle class="e" cx="82.97" cy="127.18" r="1.42"/><circle class="e" cx="90.17" cy="134.38" r="1.42"/><circle class="e" cx="90.17" cy="127.18" r="1.42"/><circle class="e" cx="97.37" cy="134.38" r="1.42"/><circle class="e" cx="97.37" cy="127.18" r="1.42"/><circle class="e" cx="104.57" cy="134.38" r="1.42"/><circle class="e" cx="104.57" cy="127.18" r="1.42"/><circle class="e" cx="111.77" cy="134.38" r="1.42"/><circle class="e" cx="111.77" cy="127.18" r="1.42"/><circle class="e" cx="118.97" cy="134.38" r="1.42"/><circle class="e" cx="118.97" cy="127.18" r="1.42"/><circle class="e" cx="126.17" cy="134.38" r="1.42"/><circle class="e" cx="126.17" cy="127.18" r="1.42"/><circle class="e" cx="133.37" cy="134.38" r="1.42"/><circle class="e" cx="133.37" cy="127.18" r="1.42"/><circle class="e" cx="140.57" cy="134.38" r="1.42"/><circle class="e" cx="140.57" cy="127.18" r="1.42"/><circle class="e" cx="153.21" cy="53.55" r="1.42"/><circle class="e" cx="146.01" cy="53.55" r="1.42"/><circle class="e" cx="138.81" cy="53.55" r="1.42"/><circle class="e" cx="95.61" cy="67.95" r="1.42"/><circle class="e" cx="88.41" cy="67.95" r="1.42"/><circle class="e" cx="153.21" cy="39.15" r="1.42"/><circle class="e" cx="146.01" cy="39.15" r="1.42"/><circle class="e" cx="138.81" cy="39.15" r="1.42"/><circle class="e" cx="131.61" cy="39.15" r="1.42"/><circle class="e" cx="124.41" cy="39.15" r="1.42"/><circle class="e" cx="117.21" cy="39.15" r="1.42"/><circle class="e" cx="110.01" cy="39.15" r="1.42"/><circle class="e" cx="102.81" cy="39.15" r="1.42"/><circle class="e" cx="95.61" cy="39.15" r="1.42"/><circle class="e" cx="88.41" cy="39.15" r="1.42"/><circle class="e" cx="153.21" cy="67.95" r="1.42"/><circle class="e" cx="146.01" cy="67.95" r="1.42"/><circle class="e" cx="95.61" cy="82.35" r="1.42"/><circle class="e" cx="88.41" cy="82.35" r="1.42"/><circle class="e" cx="153.21" cy="82.35" r="1.42"/><circle class="e" cx="146.01" cy="82.35" r="1.42"/><circle class="e" cx="153.21" cy="89.55" r="1.42"/><circle class="e" cx="146.01" cy="89.55" r="1.42"/><circle class="e" cx="138.81" cy="89.55" r="1.42"/><circle class="e" cx="153.21" cy="60.75" r="1.42"/><circle class="e" cx="146.01" cy="60.75" r="1.42"/><circle class="e" cx="153.21" cy="46.35" r="1.42"/><circle class="e" cx="146.01" cy="46.35" r="1.42"/><circle class="e" cx="138.81" cy="46.35" r="1.42"/><circle class="e" cx="131.61" cy="46.35" r="1.42"/><circle class="e" cx="124.41" cy="46.35" r="1.42"/><circle class="e" cx="117.21" cy="46.35" r="1.42"/><circle class="e" cx="110.01" cy="46.35" r="1.42"/><circle class="e" cx="102.81" cy="46.35" r="1.42"/><circle class="e" cx="95.61" cy="46.35" r="1.42"/><circle class="e" cx="88.41" cy="46.35" r="1.42"/><circle class="e" cx="102.81" cy="53.55" r="1.42"/><circle class="e" cx="95.61" cy="53.55" r="1.42"/><circle class="e" cx="88.41" cy="53.55" r="1.42"/><circle class="e" cx="95.61" cy="75.15" r="1.42"/><circle class="e" cx="88.41" cy="75.15" r="1.42"/><circle class="e" cx="102.81" cy="89.55" r="1.42"/><circle class="e" cx="95.61" cy="89.55" r="1.42"/><circle class="e" cx="88.41" cy="89.55" r="1.42"/><circle class="e" cx="95.61" cy="60.75" r="1.42"/><circle class="e" cx="88.41" cy="60.75" r="1.42"/><circle class="e" cx="153.21" cy="103.95" r="1.42"/><circle class="e" cx="146.01" cy="103.95" r="1.42"/><circle class="e" cx="138.81" cy="103.95" r="1.42"/><circle class="e" cx="131.61" cy="103.95" r="1.42"/><circle class="e" cx="124.41" cy="103.95" r="1.42"/><circle class="e" cx="117.21" cy="103.95" r="1.42"/><circle class="e" cx="110.01" cy="103.95" r="1.42"/><circle class="e" cx="102.81" cy="103.95" r="1.42"/><circle class="e" cx="95.61" cy="103.95" r="1.42"/><circle class="e" cx="88.41" cy="103.95" r="1.42"/><circle class="e" cx="153.21" cy="96.75" r="1.42"/><circle class="e" cx="146.01" cy="96.75" r="1.42"/><circle class="e" cx="138.81" cy="96.75" r="1.42"/><circle class="e" cx="131.61" cy="96.75" r="1.42"/><circle class="e" cx="124.41" cy="96.75" r="1.42"/><circle class="e" cx="117.21" cy="96.75" r="1.42"/><circle class="e" cx="110.01" cy="96.75" r="1.42"/><circle class="e" cx="102.81" cy="96.75" r="1.42"/><circle class="e" cx="95.61" cy="96.75" r="1.42"/><circle class="e" cx="88.41" cy="96.75" r="1.42"/><circle class="e" cx="153.21" cy="75.15" r="1.42"/><circle class="e" cx="146.01" cy="75.15" r="1.42"/><g><path class="g" d="M.14,.14H198.57"/><path class="g" d="M198.57,.14V141.87"/><path class="g" d="M198.57,141.87H.14"/><path class="g" d="M.14,141.87V.14"/></g></g></svg>